<svg width="35" height="35" viewBox="0 0 35 35" fill="none" xmlns="http://www.w3.org/2000/svg">
<g clip-path="url(#clip0_5_9)">
<path d="M17.5 2.91666C25.5544 2.91666 32.0833 9.44561 32.0833 17.5C32.0833 25.5544 25.5544 32.0833 17.5 32.0833C9.44562 32.0833 2.91666 25.5544 2.91666 17.5C2.91666 9.44561 9.44562 2.91666 17.5 2.91666ZM17.5 5.83332C14.4058 5.83332 11.4383 7.06249 9.25042 9.25041C7.06249 11.4383 5.83333 14.4058 5.83333 17.5C5.83333 20.5942 7.06249 23.5616 9.25042 25.7496C11.4383 27.9375 14.4058 29.1667 17.5 29.1667C20.5942 29.1667 23.5617 27.9375 25.7496 25.7496C27.9375 23.5616 29.1667 20.5942 29.1667 17.5C29.1667 14.4058 27.9375 11.4383 25.7496 9.25041C23.5617 7.06249 20.5942 5.83332 17.5 5.83332ZM17.4854 14.5833C18.2992 14.5833 18.9583 15.2425 18.9583 16.0562V23.5287C19.2363 23.6893 19.4536 23.937 19.5764 24.2336C19.6993 24.5302 19.7208 24.859 19.6377 25.1691C19.5547 25.4792 19.3716 25.7532 19.1169 25.9486C18.8622 26.144 18.5502 26.25 18.2292 26.25H17.5146C17.3212 26.25 17.1296 26.2119 16.9509 26.1379C16.7722 26.0638 16.6098 25.9554 16.4731 25.8186C16.3363 25.6818 16.2278 25.5194 16.1538 25.3407C16.0798 25.162 16.0417 24.9705 16.0417 24.7771V17.5C15.6549 17.5 15.284 17.3463 15.0105 17.0729C14.737 16.7994 14.5833 16.4284 14.5833 16.0417C14.5833 15.6549 14.737 15.2839 15.0105 15.0105C15.284 14.737 15.6549 14.5833 16.0417 14.5833H17.4854ZM17.5 10.2083C17.8868 10.2083 18.2577 10.362 18.5312 10.6355C18.8047 10.9089 18.9583 11.2799 18.9583 11.6667C18.9583 12.0534 18.8047 12.4244 18.5312 12.6979C18.2577 12.9713 17.8868 13.125 17.5 13.125C17.1132 13.125 16.7423 12.9713 16.4688 12.6979C16.1953 12.4244 16.0417 12.0534 16.0417 11.6667C16.0417 11.2799 16.1953 10.9089 16.4688 10.6355C16.7423 10.362 17.1132 10.2083 17.5 10.2083Z" fill="#F5F5F5"/>
</g>
<defs>
<clipPath id="clip0_5_9">
<rect width="35" height="35" fill="white"/>
</clipPath>
</defs>
</svg>
